<?xml version="1.0"?>
<svg xmlns="http://www.w3.org/2000/svg" width="720" height="330" viewBox="0 0 720 330"
	font-family="sans-serif" font-size="17">
<rect width="720" height="330" fill="#FFF"/>

<!-- Subject (Special:Subject card) -->
<rect x="170" y="70" width="420" height="236" fill="none" stroke="#039" stroke-width="1.5"/>
<text x="190" y="100" font-size="16" font-weight="bold" fill="#000">Rijksmuseum</text>
<rect x="190" y="109" width="56" height="18" rx="3" fill="#EAECF0"/>
<text x="218" y="122" font-size="11" text-anchor="middle" fill="#202122">Museum</text>
<path stroke="#A2A9B1" d="M170,134H590"/>
<rect x="176" y="140" width="408" height="30" fill="none" stroke="#D00" stroke-width="1.5"/>
<text x="190" y="160" font-size="13" font-weight="bold" fill="#000">Founded</text>
<text x="400" y="160" font-size="13" fill="#000">1800</text>
<path stroke="#C8CCD1" d="M176,176H584"/>
<text x="190" y="198" font-size="13" font-weight="bold" fill="#000">City</text>
<text x="400" y="198" font-size="13" fill="#36C">Amsterdam</text>
<path stroke="#C8CCD1" d="M176,214H584"/>
<text x="190" y="236" font-size="13" font-weight="bold" fill="#000">Visitors</text>
<text x="400" y="236" font-size="13" fill="#000">2,700,000</text>
<path stroke="#C8CCD1" d="M176,252H584"/>
<text x="190" y="272" font-size="13" fill="#72777D">…</text>
<path stroke="#A2A9B1" d="M170,282H590"/>
<text x="190" y="298" font-size="11" font-weight="bold" fill="#202122">ID:</text>
<text x="210" y="298" font-size="11" font-family="monospace" fill="#202122">sEpfwJLnxyQy6vR</text>

<!-- Callouts -->
<text x="118" y="64" text-anchor="middle" fill="#039">Subject</text>
<path stroke="#039" d="M142,70L170,80"/>

<text x="156" y="101" text-anchor="end" fill="#777">Label</text>
<path stroke="#777" d="M160,96H188"/>

<text x="156" y="123" text-anchor="end" fill="#609">Schema</text>
<path stroke="#609" d="M160,118H188"/>

<text x="156" y="160" text-anchor="end" fill="#00F">Property name</text>
<path stroke="#00F" d="M160,155H188"/>

<text x="156" y="303" text-anchor="end" fill="#00857A">ID</text>
<path stroke="#00857A" d="M160,298H188"/>

<text x="415" y="36" text-anchor="middle" fill="#1D80C0">Value</text>
<path stroke="#1D80C0" d="M415,42V138"/>

<text x="612" y="160" fill="#D00">Statement</text>
<path stroke="#D00" d="M606,155H586"/>

<text x="612" y="200" fill="#D96B00">Relation</text>
<text x="612" y="216" font-size="12" fill="#D96B00">to another Subject</text>
<path stroke="#D96B00" d="M606,195L474,196"/>
</svg>
